<svg width="866" height="876" viewBox="0 0 866 876" fill="none" xmlns="http://www.w3.org/2000/svg">
    <path d="M88.7805 36.587C75.4946 43.8452 55.0127 54.8882 43.2376 61.1029L21.8368 72.4263C21.8057 134.355 22.3664 147.968 23.3632 147.968C24.2199 147.968 35.076 142.719 47.5053 136.286L70.0898 124.604C70.4325 149.354 70.9621 195.722 71.4761 243.633C72.2081 311.339 72.8623 330.84 74.3731 331.245C75.4478 331.525 76.3045 330.887 76.2889 329.812C76.2733 328.737 79.8869 321.199 84.3103 313.068C88.7182 304.938 96.1944 291.605 100.914 283.475C105.633 275.344 113.857 262.37 119.184 254.66C124.511 246.95 132.859 235.736 137.734 229.739C142.61 223.743 155.849 209.475 167.141 198.043C178.449 186.611 194.352 171.892 202.482 165.334C210.628 158.777 222.387 149.915 228.633 145.631L239.972 137.844L239.084 24.1421L112.923 23.3945L88.7805 36.587ZM72.4262 625.607C71.7097 626.183 71.2424 643.706 71.3826 664.546L71.6474 702.441H24.142C22.3197 739.262 21.8057 772.905 21.8057 800.957V851.966C271.497 851.25 288.443 850.907 289.689 848.851C290.484 847.574 290.639 846.079 290.032 845.534C289.425 844.989 279.456 839.677 267.899 833.743C256.327 827.809 239.162 817.794 229.739 811.486C220.316 805.193 208.042 796.409 202.482 791.985C196.906 787.562 184.991 777.297 176.004 769.198C167.001 761.099 153.637 747.486 146.301 738.966C138.949 730.446 128.747 717.861 123.639 711.008C118.514 704.155 110.96 693.298 106.864 686.866C102.752 680.449 93.9671 663.798 87.3475 649.874C80.7279 635.965 74.965 624.564 74.5289 624.564C74.0772 624.564 73.1426 625.031 72.4262 625.607Z" fill="#1A2238"/>
    <path d="M476.611 88.7803C583.165 88.7803 679.722 131.58 750.03 200.925H637.04V308.324C595.191 268.781 538.732 244.536 476.611 244.536C347.579 244.536 242.979 349.137 242.979 478.169C242.979 607.201 347.579 711.802 476.611 711.802C538.733 711.802 595.191 687.556 637.04 648.013V753.856H751.602C681.164 824.117 583.961 867.558 476.611 867.558C261.558 867.557 87.2227 693.222 87.2227 478.169C87.2227 263.116 261.558 88.7804 476.611 88.7803Z" fill="#1A2238"/>
    <rect x="682.208" y="235.191" width="140.18" height="140.18" fill="#1A2238"/>
    <rect x="725.82" y="406.522" width="140.18" height="140.18" fill="#1A2238"/>
    <rect x="682.208" y="580.968" width="140.18" height="140.18" fill="#1A2238"/>
</svg>
