<svg width="4332" height="1050" viewBox="0 0 4332 1050" fill="none" xmlns="http://www.w3.org/2000/svg">
    <path d="M88.7805 85.587C75.4946 92.8452 55.0127 103.888 43.2376 110.103L21.8368 121.426C21.8057 183.355 22.3664 196.968 23.3632 196.968C24.2199 196.968 35.076 191.719 47.5053 185.286L70.0898 173.604C70.4325 198.354 70.9621 244.722 71.4761 292.633C72.2081 360.34 72.8623 379.84 74.3731 380.245C75.4478 380.525 76.3045 379.887 76.2889 378.812C76.2733 377.737 79.8869 370.199 84.3103 362.068C88.7182 353.938 96.1944 340.605 100.914 332.475C105.633 324.344 113.857 311.37 119.184 303.66C124.511 295.95 132.859 284.736 137.734 278.739C142.61 272.743 155.849 258.476 167.141 247.043C178.449 235.611 194.352 220.892 202.482 214.334C210.628 207.777 222.387 198.915 228.633 194.631L239.972 186.844L239.084 73.1422L112.923 72.3945L88.7805 85.587ZM72.4262 674.607C71.7097 675.184 71.2424 692.706 71.3826 713.546L71.6474 751.441H24.142C22.3197 788.262 21.8057 821.905 21.8057 849.957V900.966C271.497 900.25 288.443 899.907 289.689 897.851C290.484 896.574 290.639 895.079 290.032 894.534C289.425 893.989 279.456 888.677 267.899 882.743C256.327 876.809 239.162 866.794 229.739 860.486C220.316 854.193 208.042 845.409 202.482 840.985C196.906 836.562 184.991 826.297 176.004 818.198C167.001 810.099 153.637 796.486 146.301 787.966C138.949 779.446 128.747 766.861 123.639 760.008C118.514 753.155 110.96 742.299 106.864 735.866C102.752 729.449 93.9671 712.798 87.3475 698.874C80.7279 684.965 74.965 673.564 74.5289 673.564C74.0772 673.564 73.1426 674.031 72.4262 674.607Z" fill="white"/>
    <path d="M476.611 137.78C583.165 137.78 679.722 180.58 750.03 249.925H637.04V357.324C595.191 317.781 538.732 293.536 476.611 293.536C347.579 293.536 242.979 398.137 242.979 527.169C242.979 656.201 347.579 760.802 476.611 760.802C538.733 760.802 595.191 736.556 637.04 697.013V802.856H751.602C681.164 873.117 583.961 916.558 476.611 916.558C261.558 916.557 87.2227 742.222 87.2227 527.169C87.2227 312.116 261.558 137.78 476.611 137.78Z" fill="white"/>
    <rect x="682.209" y="284.191" width="140.18" height="140.18" fill="white"/>
    <rect x="725.82" y="455.521" width="140.18" height="140.18" fill="white"/>
    <rect x="682.209" y="629.968" width="140.18" height="140.18" fill="white"/>
    <path d="M1296 775.6C1262.87 775.6 1234.4 768.6 1210.6 754.6C1186.8 740.6 1168.6 719.367 1156 690.9C1143.4 661.967 1137.1 625.567 1137.1 581.7C1137.1 537.367 1143.63 500.967 1156.7 472.5C1170.23 444.033 1188.9 422.8 1212.7 408.8C1236.5 394.8 1264.27 387.8 1296 387.8C1331.47 387.8 1363.2 395.733 1391.2 411.6C1419.67 427.467 1442.07 449.867 1458.4 478.8C1475.2 507.733 1483.6 542.033 1483.6 581.7C1483.6 620.9 1475.2 654.967 1458.4 683.9C1442.07 712.833 1419.67 735.467 1391.2 751.8C1363.2 767.667 1331.47 775.6 1296 775.6ZM1073.4 770V250.6H1182.6V469.7L1175.6 581L1177.7 693V770H1073.4ZM1277.1 686C1295.3 686 1311.4 681.8 1325.4 673.4C1339.87 665 1351.3 653.1 1359.7 637.7C1368.57 621.833 1373 603.167 1373 581.7C1373 559.767 1368.57 541.1 1359.7 525.7C1351.3 510.3 1339.87 498.4 1325.4 490C1311.4 481.6 1295.3 477.4 1277.1 477.4C1258.9 477.4 1242.57 481.6 1228.1 490C1213.63 498.4 1202.2 510.3 1193.8 525.7C1185.4 541.1 1181.2 559.767 1181.2 581.7C1181.2 603.167 1185.4 621.833 1193.8 637.7C1202.2 653.1 1213.63 665 1228.1 673.4C1242.57 681.8 1258.9 686 1277.1 686ZM1594.05 911.4C1574.45 911.4 1555.08 908.367 1535.95 902.3C1516.81 896.233 1501.18 887.833 1489.05 877.1L1528.95 799.4C1537.35 806.867 1546.91 812.7 1557.65 816.9C1568.85 821.1 1579.81 823.2 1590.55 823.2C1605.95 823.2 1618.08 819.467 1626.95 812C1636.28 805 1644.68 793.1 1652.15 776.3L1671.75 730.1L1680.15 718.2L1815.25 393.4H1920.25L1750.15 793.1C1738.01 823.433 1724.01 847.233 1708.15 864.5C1692.75 881.767 1675.48 893.9 1656.35 900.9C1637.68 907.9 1616.91 911.4 1594.05 911.4ZM1658.45 784.7L1490.45 393.4H1603.15L1733.35 708.4L1658.45 784.7ZM2122.91 775.6C2078.57 775.6 2044.04 764.4 2019.31 742C1994.57 719.133 1982.21 685.3 1982.21 640.5V310.1H2091.41V639.1C2091.41 654.967 2095.61 667.333 2104.01 676.2C2112.41 684.6 2123.84 688.8 2138.31 688.8C2155.57 688.8 2170.27 684.133 2182.41 674.8L2211.81 751.8C2200.61 759.733 2187.07 765.8 2171.21 770C2155.81 773.733 2139.71 775.6 2122.91 775.6ZM1924.11 477.4V393.4H2185.21V477.4H1924.11ZM2448.39 775.6C2405.45 775.6 2367.65 767.2 2334.99 750.4C2302.79 733.6 2277.82 710.733 2260.09 681.8C2242.35 652.4 2233.49 619.033 2233.49 581.7C2233.49 543.9 2242.12 510.533 2259.39 481.6C2277.12 452.2 2301.15 429.333 2331.49 413C2361.82 396.2 2396.12 387.8 2434.39 387.8C2471.25 387.8 2504.39 395.733 2533.79 411.6C2563.65 427 2587.22 449.4 2604.49 478.8C2621.75 507.733 2630.39 542.5 2630.39 583.1C2630.39 587.3 2630.15 592.2 2629.69 597.8C2629.22 602.933 2628.75 607.833 2628.29 612.5H2322.39V548.8H2570.89L2528.89 567.7C2528.89 548.1 2524.92 531.067 2516.99 516.6C2509.05 502.133 2498.09 490.933 2484.09 483C2470.09 474.6 2453.75 470.4 2435.09 470.4C2416.42 470.4 2399.85 474.6 2385.39 483C2371.39 490.933 2360.42 502.367 2352.49 517.3C2344.55 531.767 2340.59 549.033 2340.59 569.1V585.9C2340.59 606.433 2345.02 624.633 2353.89 640.5C2363.22 655.9 2376.05 667.8 2392.39 676.2C2409.19 684.133 2428.79 688.1 2451.19 688.1C2471.25 688.1 2488.75 685.067 2503.69 679C2519.09 672.933 2533.09 663.833 2545.69 651.7L2603.79 714.7C2586.52 734.3 2564.82 749.467 2538.69 760.2C2512.55 770.467 2482.45 775.6 2448.39 775.6Z" fill="white"/>
    <path d="M2882.29 775.6C2842.15 775.6 2806.45 767.2 2775.19 750.4C2744.39 733.6 2719.89 710.733 2701.69 681.8C2683.95 652.4 2675.09 619.033 2675.09 581.7C2675.09 543.9 2683.95 510.533 2701.69 481.6C2719.89 452.2 2744.39 429.333 2775.19 413C2806.45 396.2 2842.15 387.8 2882.29 387.8C2921.95 387.8 2957.42 396.2 2988.69 413C3019.95 429.333 3044.45 451.967 3062.19 480.9C3079.92 509.833 3088.79 543.433 3088.79 581.7C3088.79 619.033 3079.92 652.4 3062.19 681.8C3044.45 710.733 3019.95 733.6 2988.69 750.4C2957.42 767.2 2921.95 775.6 2882.29 775.6ZM2882.29 686C2900.49 686 2916.82 681.8 2931.29 673.4C2945.75 665 2957.19 653.1 2965.59 637.7C2973.99 621.833 2978.19 603.167 2978.19 581.7C2978.19 559.767 2973.99 541.1 2965.59 525.7C2957.19 510.3 2945.75 498.4 2931.29 490C2916.82 481.6 2900.49 477.4 2882.29 477.4C2864.09 477.4 2847.75 481.6 2833.29 490C2818.82 498.4 2807.15 510.3 2798.29 525.7C2789.89 541.1 2785.69 559.767 2785.69 581.7C2785.69 603.167 2789.89 621.833 2798.29 637.7C2807.15 653.1 2818.82 665 2833.29 673.4C2847.75 681.8 2864.09 686 2882.29 686ZM3386.63 770V696.5L3379.63 680.4V548.8C3379.63 525.467 3372.39 507.267 3357.93 494.2C3343.93 481.133 3322.23 474.6 3292.83 474.6C3272.76 474.6 3252.93 477.867 3233.33 484.4C3214.19 490.467 3197.86 498.867 3184.33 509.6L3145.13 433.3C3165.66 418.833 3190.39 407.633 3219.33 399.7C3248.26 391.767 3277.66 387.8 3307.53 387.8C3364.93 387.8 3409.49 401.333 3441.23 428.4C3472.96 455.467 3488.83 497.7 3488.83 555.1V770H3386.63ZM3271.83 775.6C3242.43 775.6 3217.23 770.7 3196.23 760.9C3175.23 750.633 3159.13 736.867 3147.93 719.6C3136.73 702.333 3131.13 682.967 3131.13 661.5C3131.13 639.1 3136.49 619.5 3147.23 602.7C3158.43 585.9 3175.93 572.833 3199.73 563.5C3223.53 553.7 3254.56 548.8 3292.83 548.8H3392.93V612.5H3304.73C3279.06 612.5 3261.33 616.7 3251.53 625.1C3242.19 633.5 3237.53 644 3237.53 656.6C3237.53 670.6 3242.89 681.8 3253.63 690.2C3264.83 698.133 3279.99 702.1 3299.13 702.1C3317.33 702.1 3333.66 697.9 3348.13 689.5C3362.59 680.633 3373.09 667.8 3379.63 651L3396.43 701.4C3388.49 725.667 3374.03 744.1 3353.03 756.7C3332.03 769.3 3304.96 775.6 3271.83 775.6ZM3741.66 775.6C3697.32 775.6 3662.79 764.4 3638.06 742C3613.32 719.133 3600.96 685.3 3600.96 640.5V310.1H3710.16V639.1C3710.16 654.967 3714.36 667.333 3722.76 676.2C3731.16 684.6 3742.59 688.8 3757.06 688.8C3774.32 688.8 3789.02 684.133 3801.16 674.8L3830.56 751.8C3819.36 759.733 3805.82 765.8 3789.96 770C3774.56 773.733 3758.46 775.6 3741.66 775.6ZM3542.86 477.4V393.4H3803.96V477.4H3542.86ZM3891.86 770V250.6H4001.06V497.7L3976.56 466.2C3990.09 441 4009.46 421.633 4034.66 408.1C4059.86 394.567 4088.56 387.8 4120.76 387.8C4150.62 387.8 4177.22 393.867 4200.56 406C4224.36 417.667 4243.02 435.867 4256.56 460.6C4270.09 484.867 4276.86 516.133 4276.86 554.4V770H4167.66V571.2C4167.66 540.867 4160.89 518.467 4147.36 504C4134.29 489.533 4115.62 482.3 4091.36 482.3C4074.09 482.3 4058.46 486.033 4044.46 493.5C4030.92 500.5 4020.19 511.467 4012.26 526.4C4004.79 541.333 4001.06 560.467 4001.06 583.8V770H3891.86Z" fill="#00D4FF"/>
    <path d="M2370.85 971.4H2331.55L2325.25 990H2298.4L2336.5 884.7H2366.2L2404.3 990H2377.15L2370.85 971.4ZM2364.25 951.6L2351.2 913.05L2338.3 951.6H2364.25ZM2441.55 884.7V990H2415.9V884.7H2441.55ZM2524.63 926.7V948H2458.63V926.7H2524.63ZM2615.7 884.7V905.25H2572.8V927.45H2604.9V947.4H2572.8V990H2547.15V884.7H2615.7ZM2654.83 884.7V990H2629.18V884.7H2654.83ZM2727.12 990L2705.22 950.25H2699.07V990H2673.42V884.7H2716.47C2724.77 884.7 2731.82 886.15 2737.62 889.05C2743.52 891.95 2747.92 895.95 2750.82 901.05C2753.72 906.05 2755.17 911.65 2755.17 917.85C2755.17 924.85 2753.17 931.1 2749.17 936.6C2745.27 942.1 2739.47 946 2731.77 948.3L2756.07 990H2727.12ZM2699.07 932.1H2714.97C2719.67 932.1 2723.17 930.95 2725.47 928.65C2727.87 926.35 2729.07 923.1 2729.07 918.9C2729.07 914.9 2727.87 911.75 2725.47 909.45C2723.17 907.15 2719.67 906 2714.97 906H2699.07V932.1ZM2809.37 991.05C2801.67 991.05 2794.77 989.8 2788.67 987.3C2782.57 984.8 2777.67 981.1 2773.97 976.2C2770.37 971.3 2768.47 965.4 2768.27 958.5H2795.57C2795.97 962.4 2797.32 965.4 2799.62 967.5C2801.92 969.5 2804.92 970.5 2808.62 970.5C2812.42 970.5 2815.42 969.65 2817.62 967.95C2819.82 966.15 2820.92 963.7 2820.92 960.6C2820.92 958 2820.02 955.85 2818.22 954.15C2816.52 952.45 2814.37 951.05 2811.77 949.95C2809.27 948.85 2805.67 947.6 2800.97 946.2C2794.17 944.1 2788.62 942 2784.32 939.9C2780.02 937.8 2776.32 934.7 2773.22 930.6C2770.12 926.5 2768.57 921.15 2768.57 914.55C2768.57 904.75 2772.12 897.1 2779.22 891.6C2786.32 886 2795.57 883.2 2806.97 883.2C2818.57 883.2 2827.92 886 2835.02 891.6C2842.12 897.1 2845.92 904.8 2846.42 914.7H2818.67C2818.47 911.3 2817.22 908.65 2814.92 906.75C2812.62 904.75 2809.67 903.75 2806.07 903.75C2802.97 903.75 2800.47 904.6 2798.57 906.3C2796.67 907.9 2795.72 910.25 2795.72 913.35C2795.72 916.75 2797.32 919.4 2800.52 921.3C2803.72 923.2 2808.72 925.25 2815.52 927.45C2822.32 929.75 2827.82 931.95 2832.02 934.05C2836.32 936.15 2840.02 939.2 2843.12 943.2C2846.22 947.2 2847.77 952.35 2847.77 958.65C2847.77 964.65 2846.22 970.1 2843.12 975C2840.12 979.9 2835.72 983.8 2829.92 986.7C2824.12 989.6 2817.27 991.05 2809.37 991.05ZM2939.3 884.7V905.25H2911.4V990H2885.75V905.25H2857.85V884.7H2939.3ZM2964.18 991.2C2959.68 991.2 2955.98 989.9 2953.08 987.3C2950.28 984.6 2948.88 981.3 2948.88 977.4C2948.88 973.4 2950.28 970.05 2953.08 967.35C2955.98 964.65 2959.68 963.3 2964.18 963.3C2968.58 963.3 2972.18 964.65 2974.98 967.35C2977.88 970.05 2979.33 973.4 2979.33 977.4C2979.33 981.3 2977.88 984.6 2974.98 987.3C2972.18 989.9 2968.58 991.2 2964.18 991.2ZM3106.55 918.6C3106.55 924.7 3105.15 930.3 3102.35 935.4C3099.55 940.4 3095.25 944.45 3089.45 947.55C3083.65 950.65 3076.45 952.2 3067.85 952.2H3051.95V990H3026.3V884.7H3067.85C3076.25 884.7 3083.35 886.15 3089.15 889.05C3094.95 891.95 3099.3 895.95 3102.2 901.05C3105.1 906.15 3106.55 912 3106.55 918.6ZM3065.9 931.8C3070.8 931.8 3074.45 930.65 3076.85 928.35C3079.25 926.05 3080.45 922.8 3080.45 918.6C3080.45 914.4 3079.25 911.15 3076.85 908.85C3074.45 906.55 3070.8 905.4 3065.9 905.4H3051.95V931.8H3065.9ZM3173.6 990L3151.7 950.25H3145.55V990H3119.9V884.7H3162.95C3171.25 884.7 3178.3 886.15 3184.1 889.05C3190 891.95 3194.4 895.95 3197.3 901.05C3200.2 906.05 3201.65 911.65 3201.65 917.85C3201.65 924.85 3199.65 931.1 3195.65 936.6C3191.75 942.1 3185.95 946 3178.25 948.3L3202.55 990H3173.6ZM3145.55 932.1H3161.45C3166.15 932.1 3169.65 930.95 3171.95 928.65C3174.35 926.35 3175.55 923.1 3175.55 918.9C3175.55 914.9 3174.35 911.75 3171.95 909.45C3169.65 907.15 3166.15 906 3161.45 906H3145.55V932.1ZM3267.55 991.05C3257.65 991.05 3248.55 988.75 3240.25 984.15C3232.05 979.55 3225.5 973.15 3220.6 964.95C3215.8 956.65 3213.4 947.35 3213.4 937.05C3213.4 926.75 3215.8 917.5 3220.6 909.3C3225.5 901.1 3232.05 894.7 3240.25 890.1C3248.55 885.5 3257.65 883.2 3267.55 883.2C3277.45 883.2 3286.5 885.5 3294.7 890.1C3303 894.7 3309.5 901.1 3314.2 909.3C3319 917.5 3321.4 926.75 3321.4 937.05C3321.4 947.35 3319 956.65 3314.2 964.95C3309.4 973.15 3302.9 979.55 3294.7 984.15C3286.5 988.75 3277.45 991.05 3267.55 991.05ZM3267.55 967.65C3275.95 967.65 3282.65 964.85 3287.65 959.25C3292.75 953.65 3295.3 946.25 3295.3 937.05C3295.3 927.75 3292.75 920.35 3287.65 914.85C3282.65 909.25 3275.95 906.45 3267.55 906.45C3259.05 906.45 3252.25 909.2 3247.15 914.7C3242.15 920.2 3239.65 927.65 3239.65 937.05C3239.65 946.35 3242.15 953.8 3247.15 959.4C3252.25 964.9 3259.05 967.65 3267.55 967.65ZM3454.92 884.7V990H3429.27V926.85L3405.72 990H3385.02L3361.32 926.7V990H3335.67V884.7H3365.97L3395.52 957.6L3424.77 884.7H3454.92ZM3499.02 884.7V990H3473.37V884.7H3499.02ZM3555.7 991.05C3548 991.05 3541.1 989.8 3535 987.3C3528.9 984.8 3524 981.1 3520.3 976.2C3516.7 971.3 3514.8 965.4 3514.6 958.5H3541.9C3542.3 962.4 3543.65 965.4 3545.95 967.5C3548.25 969.5 3551.25 970.5 3554.95 970.5C3558.75 970.5 3561.75 969.65 3563.95 967.95C3566.15 966.15 3567.25 963.7 3567.25 960.6C3567.25 958 3566.35 955.85 3564.55 954.15C3562.85 952.45 3560.7 951.05 3558.1 949.95C3555.6 948.85 3552 947.6 3547.3 946.2C3540.5 944.1 3534.95 942 3530.65 939.9C3526.35 937.8 3522.65 934.7 3519.55 930.6C3516.45 926.5 3514.9 921.15 3514.9 914.55C3514.9 904.75 3518.45 897.1 3525.55 891.6C3532.65 886 3541.9 883.2 3553.3 883.2C3564.9 883.2 3574.25 886 3581.35 891.6C3588.45 897.1 3592.25 904.8 3592.75 914.7H3565C3564.8 911.3 3563.55 908.65 3561.25 906.75C3558.95 904.75 3556 903.75 3552.4 903.75C3549.3 903.75 3546.8 904.6 3544.9 906.3C3543 907.9 3542.05 910.25 3542.05 913.35C3542.05 916.75 3543.65 919.4 3546.85 921.3C3550.05 923.2 3555.05 925.25 3561.85 927.45C3568.65 929.75 3574.15 931.95 3578.35 934.05C3582.65 936.15 3586.35 939.2 3589.45 943.2C3592.55 947.2 3594.1 952.35 3594.1 958.65C3594.1 964.65 3592.55 970.1 3589.45 975C3586.45 979.9 3582.05 983.8 3576.25 986.7C3570.45 989.6 3563.6 991.05 3555.7 991.05ZM3635.54 905.25V926.55H3669.89V946.35H3635.54V969.45H3674.39V990H3609.89V884.7H3674.39V905.25H3635.54ZM3786.58 936C3792.68 937.3 3797.58 940.35 3801.28 945.15C3804.98 949.85 3806.83 955.25 3806.83 961.35C3806.83 970.15 3803.73 977.15 3797.53 982.35C3791.43 987.45 3782.88 990 3771.88 990H3722.83V884.7H3770.23C3780.93 884.7 3789.28 887.15 3795.28 892.05C3801.38 896.95 3804.43 903.6 3804.43 912C3804.43 918.2 3802.78 923.35 3799.48 927.45C3796.28 931.55 3791.98 934.4 3786.58 936ZM3748.48 927.3H3765.28C3769.48 927.3 3772.68 926.4 3774.88 924.6C3777.18 922.7 3778.33 919.95 3778.33 916.35C3778.33 912.75 3777.18 910 3774.88 908.1C3772.68 906.2 3769.48 905.25 3765.28 905.25H3748.48V927.3ZM3767.38 969.3C3771.68 969.3 3774.98 968.35 3777.28 966.45C3779.68 964.45 3780.88 961.6 3780.88 957.9C3780.88 954.2 3779.63 951.3 3777.13 949.2C3774.73 947.1 3771.38 946.05 3767.08 946.05H3748.48V969.3H3767.38ZM3887.26 971.4H3847.96L3841.66 990H3814.81L3852.91 884.7H3882.61L3920.71 990H3893.56L3887.26 971.4ZM3880.66 951.6L3867.61 913.05L3854.71 951.6H3880.66ZM3927.95 937.2C3927.95 926.8 3930.2 917.55 3934.7 909.45C3939.2 901.25 3945.45 894.9 3953.45 890.4C3961.55 885.8 3970.7 883.5 3980.9 883.5C3993.4 883.5 4004.1 886.8 4013 893.4C4021.9 900 4027.85 909 4030.85 920.4H4002.65C4000.55 916 3997.55 912.65 3993.65 910.35C3989.85 908.05 3985.5 906.9 3980.6 906.9C3972.7 906.9 3966.3 909.65 3961.4 915.15C3956.5 920.65 3954.05 928 3954.05 937.2C3954.05 946.4 3956.5 953.75 3961.4 959.25C3966.3 964.75 3972.7 967.5 3980.6 967.5C3985.5 967.5 3989.85 966.35 3993.65 964.05C3997.55 961.75 4000.55 958.4 4002.65 954H4030.85C4027.85 965.4 4021.9 974.4 4013 981C4004.1 987.5 3993.4 990.75 3980.9 990.75C3970.7 990.75 3961.55 988.5 3953.45 984C3945.45 979.4 3939.2 973.05 3934.7 964.95C3930.2 956.85 3927.95 947.6 3927.95 937.2ZM4107.61 990L4072.21 943.5V990H4046.56V884.7H4072.21V930.9L4107.31 884.7H4137.46L4096.66 936.3L4138.96 990H4107.61ZM4176.8 905.25V926.55H4211.15V946.35H4176.8V969.45H4215.65V990H4151.15V884.7H4215.65V905.25H4176.8ZM4271.75 884.7C4282.85 884.7 4292.55 886.9 4300.85 891.3C4309.15 895.7 4315.55 901.9 4320.05 909.9C4324.65 917.8 4326.95 926.95 4326.95 937.35C4326.95 947.65 4324.65 956.8 4320.05 964.8C4315.55 972.8 4309.1 979 4300.7 983.4C4292.4 987.8 4282.75 990 4271.75 990H4232.3V884.7H4271.75ZM4270.1 967.8C4279.8 967.8 4287.35 965.15 4292.75 959.85C4298.15 954.55 4300.85 947.05 4300.85 937.35C4300.85 927.65 4298.15 920.1 4292.75 914.7C4287.35 909.3 4279.8 906.6 4270.1 906.6H4257.95V967.8H4270.1Z" fill="white"/>
</svg>
