<svg width="4332" height="1050" viewBox="0 0 4332 1050" fill="none" xmlns="http://www.w3.org/2000/svg">
    <path d="M88.7806 85.587C75.4947 92.8452 55.0128 103.888 43.2377 110.103L21.8369 121.426C21.8058 183.355 22.3665 196.968 23.3633 196.968C24.22 196.968 35.0761 191.719 47.5054 185.286L70.09 173.604C70.4326 198.354 70.9622 244.722 71.4762 292.633C72.2082 360.339 72.8624 379.84 74.3732 380.245C75.4479 380.525 76.3046 379.887 76.289 378.812C76.2734 377.737 79.887 370.199 84.3104 362.068C88.7183 353.938 96.1946 340.605 100.914 332.475C105.633 324.344 113.857 311.37 119.184 303.66C124.511 295.95 132.859 284.736 137.735 278.739C142.61 272.743 155.849 258.475 167.141 247.043C178.449 235.611 194.352 220.892 202.482 214.334C210.628 207.777 222.388 198.915 228.633 194.631L239.972 186.844L239.085 73.1421L112.923 72.3945L88.7806 85.587ZM72.4263 674.607C71.7098 675.183 71.2426 692.706 71.3827 713.546L71.6475 751.441H24.1421C22.3198 788.262 21.8058 821.905 21.8058 849.957V900.966C271.497 900.25 288.443 899.907 289.69 897.851C290.484 896.574 290.64 895.079 290.032 894.534C289.425 893.989 279.456 888.677 267.899 882.743C256.327 876.809 239.162 866.794 229.739 860.486C220.316 854.193 208.043 845.409 202.482 840.985C196.906 836.562 184.991 826.297 176.004 818.198C167.001 810.099 153.637 796.486 146.301 787.966C138.949 779.446 128.747 766.861 123.639 760.008C118.514 753.155 110.96 742.298 106.864 735.866C102.752 729.449 93.9673 712.798 87.3477 698.874C80.7281 684.965 74.9651 673.564 74.529 673.564C74.0773 673.564 73.1428 674.031 72.4263 674.607Z" fill="#1A2238"/>
    <path d="M476.611 137.78C583.165 137.78 679.722 180.58 750.03 249.925H637.04V357.324C595.191 317.781 538.732 293.536 476.611 293.536C347.579 293.536 242.979 398.137 242.979 527.169C242.979 656.201 347.579 760.802 476.611 760.802C538.733 760.802 595.191 736.556 637.04 697.013V802.856H751.602C681.164 873.117 583.961 916.558 476.611 916.558C261.558 916.557 87.2227 742.222 87.2227 527.169C87.2227 312.116 261.558 137.78 476.611 137.78Z" fill="#1A2238"/>
    <rect x="682.209" y="284.191" width="140.18" height="140.18" fill="#1A2238"/>
    <rect x="725.82" y="455.522" width="140.18" height="140.18" fill="#1A2238"/>
    <rect x="682.209" y="629.968" width="140.18" height="140.18" fill="#1A2238"/>
    <path d="M1296 783.6C1262.87 783.6 1234.4 776.6 1210.6 762.6C1186.8 748.6 1168.6 727.367 1156 698.9C1143.4 669.967 1137.1 633.567 1137.1 589.7C1137.1 545.367 1143.63 508.967 1156.7 480.5C1170.23 452.033 1188.9 430.8 1212.7 416.8C1236.5 402.8 1264.27 395.8 1296 395.8C1331.47 395.8 1363.2 403.733 1391.2 419.6C1419.67 435.467 1442.07 457.867 1458.4 486.8C1475.2 515.733 1483.6 550.033 1483.6 589.7C1483.6 628.9 1475.2 662.967 1458.4 691.9C1442.07 720.833 1419.67 743.467 1391.2 759.8C1363.2 775.667 1331.47 783.6 1296 783.6ZM1073.4 778V258.6H1182.6V477.7L1175.6 589L1177.7 701V778H1073.4ZM1277.1 694C1295.3 694 1311.4 689.8 1325.4 681.4C1339.87 673 1351.3 661.1 1359.7 645.7C1368.57 629.833 1373 611.167 1373 589.7C1373 567.767 1368.57 549.1 1359.7 533.7C1351.3 518.3 1339.87 506.4 1325.4 498C1311.4 489.6 1295.3 485.4 1277.1 485.4C1258.9 485.4 1242.57 489.6 1228.1 498C1213.63 506.4 1202.2 518.3 1193.8 533.7C1185.4 549.1 1181.2 567.767 1181.2 589.7C1181.2 611.167 1185.4 629.833 1193.8 645.7C1202.2 661.1 1213.63 673 1228.1 681.4C1242.57 689.8 1258.9 694 1277.1 694ZM1594.05 919.4C1574.45 919.4 1555.08 916.367 1535.95 910.3C1516.81 904.233 1501.18 895.833 1489.05 885.1L1528.95 807.4C1537.35 814.867 1546.91 820.7 1557.65 824.9C1568.85 829.1 1579.81 831.2 1590.55 831.2C1605.95 831.2 1618.08 827.467 1626.95 820C1636.28 813 1644.68 801.1 1652.15 784.3L1671.75 738.1L1680.15 726.2L1815.25 401.4H1920.25L1750.15 801.1C1738.01 831.433 1724.01 855.233 1708.15 872.5C1692.75 889.767 1675.48 901.9 1656.35 908.9C1637.68 915.9 1616.91 919.4 1594.05 919.4ZM1658.45 792.7L1490.45 401.4H1603.15L1733.35 716.4L1658.45 792.7ZM2129.06 783.6C2084.73 783.6 2050.19 772.4 2025.46 750C2000.73 727.133 1988.36 693.3 1988.36 648.5V318.1H2097.56V647.1C2097.56 662.967 2101.76 675.333 2110.16 684.2C2118.56 692.6 2129.99 696.8 2144.46 696.8C2161.73 696.8 2176.43 692.133 2188.56 682.8L2217.96 759.8C2206.76 767.733 2193.23 773.8 2177.36 778C2161.96 781.733 2145.86 783.6 2129.06 783.6ZM1930.26 493.8V409.8H2191.36V493.8H1930.26ZM2454.54 783.6C2411.6 783.6 2373.8 775.2 2341.14 758.4C2308.94 741.6 2283.97 718.733 2266.24 689.8C2248.5 660.4 2239.64 627.033 2239.64 589.7C2239.64 551.9 2248.27 518.533 2265.54 489.6C2283.27 460.2 2307.3 437.333 2337.64 421C2367.97 404.2 2402.27 395.8 2440.54 395.8C2477.4 395.8 2510.54 403.733 2539.94 419.6C2569.8 435 2593.37 457.4 2610.64 486.8C2627.9 515.733 2636.54 550.5 2636.54 591.1C2636.54 595.3 2636.3 600.2 2635.84 605.8C2635.37 610.933 2634.9 615.833 2634.44 620.5H2328.54V556.8H2577.04L2535.04 575.7C2535.04 556.1 2531.07 539.067 2523.14 524.6C2515.2 510.133 2504.24 498.933 2490.24 491C2476.24 482.6 2459.9 478.4 2441.24 478.4C2422.57 478.4 2406 482.6 2391.54 491C2377.54 498.933 2366.57 510.367 2358.64 525.3C2350.7 539.767 2346.74 557.033 2346.74 577.1V593.9C2346.74 614.433 2351.17 632.633 2360.04 648.5C2369.37 663.9 2382.2 675.8 2398.54 684.2C2415.34 692.133 2434.94 696.1 2457.34 696.1C2477.4 696.1 2494.9 693.067 2509.84 687C2525.24 680.933 2539.24 671.833 2551.84 659.7L2609.94 722.7C2592.67 742.3 2570.97 757.467 2544.84 768.2C2518.7 778.467 2488.6 783.6 2454.54 783.6Z" fill="#1A2238"/>
    <path d="M2888.44 783.6C2848.31 783.6 2812.61 775.2 2781.34 758.4C2750.54 741.6 2726.04 718.733 2707.84 689.8C2690.11 660.4 2681.24 627.033 2681.24 589.7C2681.24 551.9 2690.11 518.533 2707.84 489.6C2726.04 460.2 2750.54 437.333 2781.34 421C2812.61 404.2 2848.31 395.8 2888.44 395.8C2928.11 395.8 2963.57 404.2 2994.84 421C3026.11 437.333 3050.61 459.967 3068.34 488.9C3086.07 517.833 3094.94 551.433 3094.94 589.7C3094.94 627.033 3086.07 660.4 3068.34 689.8C3050.61 718.733 3026.11 741.6 2994.84 758.4C2963.57 775.2 2928.11 783.6 2888.44 783.6ZM2888.44 694C2906.64 694 2922.97 689.8 2937.44 681.4C2951.91 673 2963.34 661.1 2971.74 645.7C2980.14 629.833 2984.34 611.167 2984.34 589.7C2984.34 567.767 2980.14 549.1 2971.74 533.7C2963.34 518.3 2951.91 506.4 2937.44 498C2922.97 489.6 2906.64 485.4 2888.44 485.4C2870.24 485.4 2853.91 489.6 2839.44 498C2824.97 506.4 2813.31 518.3 2804.44 533.7C2796.04 549.1 2791.84 567.767 2791.84 589.7C2791.84 611.167 2796.04 629.833 2804.44 645.7C2813.31 661.1 2824.97 673 2839.44 681.4C2853.91 689.8 2870.24 694 2888.44 694ZM3392.78 778V704.5L3385.78 688.4V556.8C3385.78 533.467 3378.55 515.267 3364.08 502.2C3350.08 489.133 3328.38 482.6 3298.98 482.6C3278.91 482.6 3259.08 485.867 3239.48 492.4C3220.35 498.467 3204.01 506.867 3190.48 517.6L3151.28 441.3C3171.81 426.833 3196.55 415.633 3225.48 407.7C3254.41 399.767 3283.81 395.8 3313.68 395.8C3371.08 395.8 3415.65 409.333 3447.38 436.4C3479.11 463.467 3494.98 505.7 3494.98 563.1V778H3392.78ZM3277.98 783.6C3248.58 783.6 3223.38 778.7 3202.38 768.9C3181.38 758.633 3165.28 744.867 3154.08 727.6C3142.88 710.333 3137.28 690.967 3137.28 669.5C3137.28 647.1 3142.65 627.5 3153.38 610.7C3164.58 593.9 3182.08 580.833 3205.88 571.5C3229.68 561.7 3260.71 556.8 3298.98 556.8H3399.08V620.5H3310.88C3285.21 620.5 3267.48 624.7 3257.68 633.1C3248.35 641.5 3243.68 652 3243.68 664.6C3243.68 678.6 3249.05 689.8 3259.78 698.2C3270.98 706.133 3286.15 710.1 3305.28 710.1C3323.48 710.1 3339.81 705.9 3354.28 697.5C3368.75 688.633 3379.25 675.8 3385.78 659L3402.58 709.4C3394.65 733.667 3380.18 752.1 3359.18 764.7C3338.18 777.3 3311.11 783.6 3277.98 783.6ZM3747.81 783.6C3703.48 783.6 3668.94 772.4 3644.21 750C3619.48 727.133 3607.11 693.3 3607.11 648.5V318.1H3716.31V647.1C3716.31 662.967 3720.51 675.333 3728.91 684.2C3737.31 692.6 3748.74 696.8 3763.21 696.8C3780.48 696.8 3795.18 692.133 3807.31 682.8L3836.71 759.8C3825.51 767.733 3811.98 773.8 3796.11 778C3780.71 781.733 3764.61 783.6 3747.81 783.6ZM3549.01 493.8V409.8H3810.11V493.8H3549.01ZM4126.91 395.8C4156.78 395.8 4183.38 401.867 4206.71 414C4230.51 425.667 4249.18 443.867 4262.71 468.6C4276.24 492.867 4283.01 524.133 4283.01 562.4V778H4173.81V579.2C4173.81 548.867 4167.04 526.467 4153.51 512C4140.44 497.533 4121.78 490.3 4097.51 490.3C4080.24 490.3 4064.61 494.033 4050.61 501.5C4037.08 508.5 4026.34 519.467 4018.41 534.4C4010.94 549.333 4007.21 568.467 4007.21 591.8V778H3898.01V258.6H4007.21V505.7L3982.71 474.2C3996.24 449 4015.61 429.633 4040.81 416.1C4066.01 402.567 4094.71 395.8 4126.91 395.8Z" fill="#00D4FF"/>
</svg>
